<?xml version="1.0" encoding="UTF-8" standalone="no" ?>
<!DOCTYPE svg PUBLIC "-//W3C//DTD SVG 1.1//EN" "http://www.w3.org/Graphics/SVG/1.1/DTD/svg11.dtd">
<svg xmlns="http://www.w3.org/2000/svg" xmlns:xlink="http://www.w3.org/1999/xlink" version="1.1" width="500" height="500" viewBox="0 0 500 500" xml:space="preserve">
<desc>Created with Fabric.js 3.6.3</desc>
<defs>
</defs>
<g transform="matrix(2.1262573707943115 0 0 2.1262573707943115 250 259)"  >
<g style=""   >
		<g transform="matrix(1 0 0 1 0.054516600406088855 0)"  >
<path style="stroke: none; stroke-width: 1; stroke-dasharray: none; stroke-linecap: butt; stroke-dashoffset: 0; stroke-linejoin: miter; stroke-miterlimit: 4; fill: rgb(21,91,161); fill-rule: nonzero; opacity: 1;"  transform=" translate(-67.05451660040609, -77.15)" d="M 24.4 1.8 L 0.1 106.2 c -0.2 0.9 0.2 1.8 1 2.4 l 67.3 45.7 l 64.7 -45.8 c 0.8 -0.5 1.1 -1.4 0.9 -2.3 L 111.4 1.8 C 111.1 0.8 110.1 0 109 0 H 26.8 C 25.6 0 24.6 0.8 24.4 1.8 z" stroke-linecap="round" />
</g>
		<g transform="matrix(1 0 0 1 0.0046706452687175215 -1.0125000000000028)"  >
<path style="stroke: none; stroke-width: 1; stroke-dasharray: none; stroke-linecap: butt; stroke-dashoffset: 0; stroke-linejoin: miter; stroke-miterlimit: 4; fill: rgb(255,255,255); fill-rule: nonzero; opacity: 1;"  transform=" translate(-67.00467064526872, -76.1375)" d="M 27.9 7.3 L 5.7 103 c -0.2 0.8 0.2 1.7 0.9 2.2 l 60.3 41 c 0.8 0.5 1.9 0.5 2.7 0 l 57.9 -41 c 0.7 -0.5 1 -1.3 0.8 -2.1 L 107.6 7.4 c -0.2 -1 -1.1 -1.7 -2.2 -1.7 H 30.1 C 29.1 5.7 28.2 6.4 27.9 7.3 z" stroke-linecap="round" />
</g>
		<g transform="matrix(1 0 0 1 -26.08041250361925 16.05000000000001)"  >
<path style="stroke: none; stroke-width: 1; stroke-dasharray: none; stroke-linecap: butt; stroke-dashoffset: 0; stroke-linejoin: miter; stroke-miterlimit: 4; fill: rgb(39,162,247); fill-rule: nonzero; opacity: 1;"  transform=" translate(-40.91958749638075, -93.20000000000002)" d="M 24.7 49.3 L 13.8 97.9 c -0.2 0.7 0.1 1.5 0.8 1.9 l 52.3 36.9 c 0.4 0.3 0.8 0.4 1.2 0.4 V 49.3 H 24.7 z" stroke-linecap="round" />
</g>
		<g transform="matrix(1 0 0 1 27.18085223985181 16.049999999999983)"  >
<path style="stroke: none; stroke-width: 1; stroke-dasharray: none; stroke-linecap: butt; stroke-dashoffset: 0; stroke-linejoin: miter; stroke-miterlimit: 4; fill: rgb(23,104,183); fill-rule: nonzero; opacity: 1;"  transform=" translate(-94.18085223985182, -93.19999999999999)" d="M 119.5 99.8 c 0.6 -0.4 0.9 -1.2 0.7 -1.9 l -10.1 -48.6 h -42 v 87.8 c 0.4 0 0.8 -0.1 1.1 -0.4 L 119.5 99.8 z" stroke-linecap="round" />
</g>
</g>
</g>
<g transform="matrix(1 0 0 1 249.49375000000003 138.1114361182665)" style=""  ><path fill="#1768b7" opacity="1" d="M-48.13 8.17L-48.13 0.91L-39.05 0.91L-39.05 8.17L-35.44 8.17L-35.44-10.03L-39.05-10.03L-39.05-2.73L-48.13-2.73L-48.13-10.03L-51.77-10.03L-51.77 8.17Z"/><path fill="#1768b7" opacity="1" d="M-15.78 8.17L-15.78 4.53L-27.59 4.53L-27.59 0.91L-16.69 0.91L-16.69-2.73L-27.59-2.73L-27.59-6.39L-15.78-6.39L-15.78-10.03L-31.23-10.03L-31.23 8.17Z"/><path fill="#1768b7" opacity="1" d="M-11.83-10.03L-11.83 8.17L3.61 8.17L3.61 4.53L-8.19 4.53L-8.19-10.03Z"/><path fill="#1768b7" opacity="1" d="M7.05-10.03L7.05 6.37L8.84 8.17L21.58 8.17L23.37 6.37L23.37-10.03L19.76-10.03L19.76 4.53L10.69 4.53L10.69-10.03Z"/><path fill="#1768b7" opacity="1" d="M43.91 8.17L43.91-10.03L40.30-10.03L40.30 2.08L31.23-10.03L27.59-10.03L27.59 8.17L31.23 8.17L31.23-3.97L40.30 8.17Z"/><path fill="#1768b7" opacity="1" d="M51.77 8.17L51.77-10.03L48.13-10.03L48.13 8.17Z"/></g><g transform="matrix(1.72420780986052 0 0 1.6092223524814244 250 161.58616647127786)"  >
<path style="stroke: none; stroke-width: 1; stroke-dasharray: none; stroke-linecap: butt; stroke-dashoffset: 0; stroke-linejoin: miter; stroke-miterlimit: 4; fill: rgb(39,162,247); fill-rule: nonzero; opacity: 1;"  transform=" translate(-49.95, -50)" d="M 91.7 49 H 8.3 c -0.6 0 -1 0.4 -1 1 s 0.4 1 1 1 h 83.3 c 0.6 0 1 -0.4 1 -1 S 92.2 49 91.7 49 z" stroke-linecap="round" />
</g>
<g transform="matrix(1.1111111111111112 0 0 1.1111111111111112 250 280)"  >
<path style="stroke: none; stroke-width: 0; stroke-dasharray: none; stroke-linecap: butt; stroke-dashoffset: 0; stroke-linejoin: miter; stroke-miterlimit: 4; fill: rgb(255,255,255); fill-rule: nonzero; opacity: 1;"  transform=" translate(-50, -50)" d="M 85.5 66.9 c -0.7 -0.4 -1.6 -0.3 -2.1 0.3 c -0.6 0.6 -0.5 1.2 -0.7 1.9 c -0.9 3.3 -5.7 3.6 -7 0.4 V 27.6 l 6.8 -6.9 c 0.8 -0.8 0.7 -2.1 -0.2 -2.7 c -0.7 -0.5 -1.4 -0.3 -2.1 -0.2 c -1.5 0.2 -3.1 0 -4.6 -0.1 c -2 -0.2 -3.9 -0.6 -5.8 -1 c -1.4 -0.3 -3.8 -1.5 -4.9 -0.2 l -7.6 9.2 c -0.9 1.2 -0.1 2.9 1.4 2.9 h 0.7 v 9 h -11 v -9.2 l 7.1 -9.7 c 1 -1.4 -0.5 -3.4 -2.1 -2.7 c -0.5 0.2 -1 0.7 -1.4 1.1 c -2.1 1.6 -4.6 2.6 -7.3 2.5 c -1.9 -0.1 -3.7 -0.7 -5.5 -1.1 c -1.7 -0.4 -3.5 -0.7 -5.2 -1.1 c -2.1 -0.4 -4.2 -0.8 -6.4 -1.1 c -4.8 -1 -8.9 0.4 -11.6 3.9 c -2.5 3.2 -3 7.7 -1.2 11.5 c 1.7 3.6 5.4 6.1 9.5 6.3 c 1 0 2.6 0.1 3.5 -0.6 c 0.8 -0.6 0.9 -1.8 0.3 -2.5 C 27.2 34 26 34 25.2 33.2 c -0.7 -0.6 -1.2 -1.5 -1.3 -2.5 c -0.2 -2 1.1 -4 3.1 -4.4 c 2.1 -0.5 4.2 0.7 4.8 2.7 v 8.7 c -3.8 0.7 -6.3 3.7 -6.8 7.5 c -0.1 0.9 -0.3 2 0.4 2.8 c 0.6 0.6 1.5 0.7 2.2 0.3 c 1.3 -0.7 2.7 -1.2 4.1 -1.4 V 49 c -3.8 0.7 -6.3 3.7 -6.8 7.5 c -0.1 0.9 -0.3 2 0.4 2.8 c 0.6 0.6 1.5 0.7 2.2 0.3 c 1.3 -0.7 2.7 -1.2 4.1 -1.4 V 64 c -2.3 0.5 -4.4 1.3 -6.5 2.5 c -3.7 2.1 -6.8 5.2 -8.9 8.9 c -0.6 1 -1 2 -1.4 3 c -0.3 0.9 -0.9 1.9 -0.4 2.9 c 1.4 2.6 4.2 -0.9 5.5 -1.7 c 4 -2.7 8.9 -3.9 13.7 -3.2 c 2.4 0.3 4.8 1.1 6.9 2.3 c 1.1 0.6 2.2 1.4 3.1 2.2 c 0.8 0.7 1.9 1.3 2.9 0.4 l 7.7 -6.6 C 56.3 73 54 71 52.9 70 c -1.4 -1.3 -3 -2.5 -4.6 -3.5 V 52.4 h 11 v 17 c 0 7.4 7.5 12.9 14.3 12.9 c 6.3 0 11.8 -4.7 12.7 -10.9 C 86.5 70 86.9 67.7 85.5 66.9 z M 69.4 77.8 c -3.4 -1.4 -6.5 -4.5 -6.5 -8.4 V 50.6 c 0 -1 -0.8 -1.8 -1.8 -1.8 H 46.5 c -1 0 -1.8 0.8 -1.8 1.8 v 17 c 0 1.5 1.8 2 2.8 2.7 c 1.2 0.8 2.3 1.7 3.3 2.7 l -5.3 4.5 C 38.7 72.1 29 71 21.1 74.8 c 1.8 -2.4 4.2 -4.4 6.9 -5.7 c 1.4 -0.7 2.9 -1.2 4.4 -1.6 c 1.3 -0.3 3 -0.4 2.9 -2.1 v -9.2 c 0.1 -3 -4.7 -1.7 -6.3 -1.2 c 0.8 -1.7 2.6 -2.6 4.4 -2.6 c 1.1 0.1 1.9 -0.8 1.9 -1.9 V 45 c 0.1 -3 -4.7 -1.7 -6.3 -1.2 c 0.5 -1.1 1.4 -1.9 2.6 -2.3 c 0.6 -0.2 1.2 -0.2 1.9 -0.3 c 1 0.1 1.9 -0.8 1.9 -1.8 V 28.8 l 0 0 l 0 0 l 0 0 c 0 -1.9 -1.8 -4 -3.3 -4.9 c -1.8 -1.2 -4.1 -1.5 -6.1 -1 c -4.5 1.2 -6.9 6.3 -5.1 10.5 c -3.4 -2 -4.8 -6.4 -2.9 -9.9 c 0.8 -1.5 2.1 -2.7 3.7 -3.4 c 1.7 -0.7 3.3 -0.5 5.1 -0.2 c 2.7 0.4 5.4 0.9 8 1.5 c 4.2 0.8 8.7 2.6 13 1.6 l -2.9 4 c -0.2 0.3 -0.3 0.7 -0.3 1.1 v 11.6 c 0 1 0.8 1.8 1.8 1.8 H 61 c 1 0 1.8 -0.8 1.8 -1.8 V 26.9 c 0 -0.6 -0.3 -1.1 -0.8 -1.5 l 4.7 -5.7 c 2 0.5 6.2 1.5 9.9 1.7 l -4.1 4.2 C 72.2 26 72 26.4 72 26.9 v 42.9 c 0 1.7 1.7 3.5 3 4.4 c 1.7 1.1 3.7 1.4 5.7 1 C 78 78.6 73.4 79.4 69.4 77.8 z M 15.4 60.4 c -1 0 -1.8 -0.8 -1.8 -1.8 V 45.5 c 0 -1 0.8 -1.8 1.8 -1.8 s 1.8 0.8 1.8 1.8 v 13.1 C 17.2 59.6 16.4 60.4 15.4 60.4 z M 38.9 86 c -0.4 0.9 -1.4 1.4 -2.3 1 c -3.6 -1.4 -7.7 -1.4 -11.3 0.1 c -0.2 0.1 -0.5 0.1 -0.7 0.1 c -0.7 0 -1.4 -0.4 -1.7 -1.1 c -0.4 -0.9 0.1 -2 1 -2.4 c 4.4 -1.8 9.5 -1.9 13.9 -0.1 C 38.8 84.1 39.3 85.1 38.9 86 z M 83.6 28.6 c 1 0 1.8 0.8 1.8 1.8 v 28.2 c 0 1 -0.8 1.8 -1.8 1.8 s -1.8 -0.8 -1.8 -1.8 V 30.4 C 81.8 29.4 82.6 28.6 83.6 28.6 z M 80.6 5 H 18.1 C 10.9 5 5 10.9 5 18.1 v 62.6 C 5 88.5 11.5 95 19.4 95 h 61.3 C 88.5 95 95 88.5 95 80.6 V 19.4 C 95 11.5 88.5 5 80.6 5 z M 91.4 80.6 c 0 5.9 -4.9 10.8 -10.8 10.8 H 19.4 c -5.9 0 -10.8 -4.9 -10.8 -10.8 V 18.1 c 0 -5.2 4.3 -9.5 9.5 -9.5 h 62.6 c 5.9 0 10.8 4.9 10.8 10.8 L 91.4 80.6 z" stroke-linecap="round" />
</g>
</svg>